<svg xmlns="http://www.w3.org/2000/svg" viewBox="0 0 1024 1024" role="img" aria-label="Kodepanelet app icon">
  <defs>
    <radialGradient id="redGlow" cx="74%" cy="18%" r="62%">
      <stop offset="0" stop-color="#dc2626" stop-opacity=".45"/>
      <stop offset=".45" stop-color="#07111f" stop-opacity=".35"/>
      <stop offset="1" stop-color="#02030a"/>
    </radialGradient>
    <filter id="softShadow" x="-20%" y="-20%" width="140%" height="140%">
      <feDropShadow dx="18" dy="20" stdDeviation="0" flood-color="#000814" flood-opacity=".62"/>
    </filter>
  </defs>
  <rect width="1024" height="1024" rx="160" fill="#02030a"/>
  <rect width="1024" height="1024" rx="160" fill="url(#redGlow)"/>
  <rect x="64" y="64" width="896" height="896" rx="112" fill="#030712" opacity=".9" stroke="#facc15" stroke-opacity=".35" stroke-width="8"/>
  <g transform="rotate(-3 512 280)">
    <rect x="196" y="210" width="632" height="174" fill="none" stroke="#facc15" stroke-width="14"/>
  </g>
  <g filter="url(#softShadow)">
    <path d="M356 492v-68c0-92 64-164 156-164s156 72 156 164v68" fill="none" stroke="#facc15" stroke-width="56" stroke-linecap="round"/>
    <rect x="292" y="452" width="440" height="320" rx="56" fill="#facc15"/>
    <circle cx="512" cy="575" r="42" fill="#030712"/>
    <rect x="490" y="610" width="44" height="132" rx="16" fill="#030712"/>
  </g>
  <g>
    <rect x="326" y="808" width="110" height="110" rx="24" fill="#050a18" stroke="#facc15" stroke-opacity=".45" stroke-width="6"/>
    <rect x="457" y="808" width="110" height="110" rx="24" fill="#050a18" stroke="#facc15" stroke-opacity=".45" stroke-width="6"/>
    <rect x="588" y="808" width="110" height="110" rx="24" fill="#063c1c" stroke="#22c55e" stroke-opacity=".68" stroke-width="6"/>
    <circle cx="381" cy="863" r="12" fill="#f7f7fb"/>
    <circle cx="512" cy="863" r="12" fill="#f7f7fb"/>
    <circle cx="643" cy="863" r="12" fill="#f7f7fb"/>
  </g>
</svg>
